<svg xmlns="http://www.w3.org/2000/svg" xml:space="preserve" version="1.1" style="shape-rendering:geometricPrecision; text-rendering:geometricPrecision; image-rendering:optimizeQuality; fill-rule:evenodd; clip-rule:evenodd" xmlns:xlink="http://www.w3.org/1999/xlink" xmlns:xodm="http://www.corel.com/coreldraw/odm/2003" viewBox="-10756.05 19380.15 836.83 949.23">
 <defs>
  <style type="text/css">
   <![CDATA[
    .fil0 {fill:#1E718F}
    .fil1 {fill:white}
   ]]>
  </style>
 </defs>
 <g id="Warstwa_x0020_1">
  <metadata id="CorelCorpID_0Corel-Layer"/>
  <path class="fil0" d="M-10030.81 20106.53c-2.66,-99.56 0.56,-201.35 -0.25,-301.26l0.41 -265.23c-1.24,-30.25 -0.39,-61.96 -0.38,-92.38 0.04,-86.87 0.19,-65.04 -215.78,-65.04l-280.79 -0.01c-50.08,-0.04 -43.25,-1.44 -69.61,24.99l-138.93 138.9c-25.98,25.79 -19.07,29.36 -19.06,75.55l-0.02 561.61c0.51,60.46 27.92,99.72 63.55,122.68 45.8,29.52 102.19,22.13 164.07,22.13l375.37 0c61.32,0 119.47,7.44 165.86,-20.29 35.46,-21.19 65.27,-62.21 66.15,-121.59 0.44,-29.73 6.58,-70 -17.99,-77.91 -13.97,-4.5 -73.13,-1.63 -92.6,-2.15z"/>
  <path class="fil1" d="M-10699.44 19604.34l-0.28 576.32c0.01,78.27 67.29,107.66 117.74,84.43 80.47,-37.06 26.33,-136.29 63.5,-154.94 15.94,-8.01 380.53,-3.4 431.69,-3.4l-0.38 -271.92 0.66 -248.25 0 -148.48 -446.97 0.01c0,197.64 31.39,166.23 -165.96,166.23z"/>
  <path class="fil1" d="M-10478.04 20183.62c0,47.44 -11.82,56.31 -26.32,89.01l437.1 0.35c36.42,0 55.36,-11.03 71.88,-30.05 20.3,-23.38 19.75,-44.74 19.75,-79.78 -35.18,-3.49 -432.9,-0.94 -502.46,-0.92l0.05 21.39z"/>
  <path class="fil0" d="M-10454.14 19549.92c-30.68,7.81 -28.22,48.41 0.93,53.69 18,3.27 281.43,1.8 291.04,-0.56 27.53,-6.79 27.13,-48.06 -2.85,-53.51 -17.53,-3.19 -281.53,-1.56 -289.12,0.38z"/>
  <path class="fil1" d="M-10658.31 19548.36l12.48 0.58 56.81 -0.09 0.05 -56.85 -0.42 -12.49c-11.37,6.63 -62.29,57.55 -68.92,68.85z"/>
  <path class="fil0" d="M-10584.2 19705.22c-43.47,7.82 -39.98,48.41 1.32,53.7 25.49,3.26 398.7,1.8 412.31,-0.57 39,-6.78 38.43,-48.05 -4.04,-53.51 -24.84,-3.19 -398.84,-1.55 -409.59,0.38z"/>
  <path class="fil0" d="M-10584.2 19854.48c-43.47,7.82 -39.98,48.41 1.32,53.7 25.49,3.26 398.7,1.8 412.31,-0.57 39,-6.78 38.43,-48.05 -4.04,-53.51 -24.84,-3.19 -398.84,-1.55 -409.59,0.38z"/>
 </g>
</svg>