<svg xmlns="http://www.w3.org/2000/svg" xml:space="preserve" style="shape-rendering:geometricPrecision;text-rendering:geometricPrecision;image-rendering:optimizeQuality;fill-rule:evenodd;clip-rule:evenodd" viewBox="-17466.32 19376.08 723.73 947.3"><defs><style>.fil0{fill:#1e718f}.fil1{fill:#fff}</style></defs><g id="Warstwa_x0020_1"><path class="fil0" d="M-17354.86 20211.74c3.98 23.51-3.84 82.57 5.5 97.93 12.03 19.77 62.93 12.33 91 12.33h416.75c116.87 0 97.35 5.31 97.35-112.34v-623.64c0-27.29 8.19-77.18-11.64-91.69-17.58-12.86-73.13-2.24-99.22-6.94-5.95-114.15 27.51-111.24-95.85-111.24h-416.75c-116.91 0-97.35-5.35-97.35 112.34v623.64c0 132.17-3.12 88.93 110.21 99.61z"/><path class="fil1" d="m-17409.26 20155.35 11.99.45 472.9-.08 13.4-.59.48-721.99-498.79-1.51z"/><path class="fil1" d="m-17297.82 20211.74-1.13 53.27 498.9 1.51-.01-721.48-55.07-.29c-4.52 87.89-.36 186.57-.36 274.77l.06 345.83c.15 25.41-1.88 42.98-27.37 45.62-69.96 7.23-335.35-6.73-415.02.77z"/><path class="fil0" d="M-17331.54 19877.98c-31.48 8.52-34.01 53.49 13.92 54.2 48.6.71 321.29 1.85 332.66-1.72 25.24-7.92 30.21-53-16.12-54.04-48.38-1.08-317.09-2.06-330.46 1.56zM-17331.54 19656.31c-31.48 8.51-34.01 53.49 13.92 54.2 48.6.71 321.29 1.84 332.66-1.72 25.24-7.92 30.21-53-16.12-54.04-48.38-1.08-317.09-2.06-330.46 1.56zM-17317.47 19821.62h315.88c47.87 0 47.78-55.54.37-55.54h-319.21c-45.36 0-46.62 55.54 2.96 55.54zM-17317.47 19599.95h150.74c45.44 0 46.97-55.54 0-55.54h-154.43c-44.63 0-45.89 55.54 3.69 55.54zM-17095.8 20043.3h94.58c47.5 0 47.41-55.55 0-55.55h-97.9c-45 0-46.26 55.55 3.32 55.55z"/></g></svg>