<?xml version="1.0" encoding="UTF-8"?>
<!DOCTYPE svg PUBLIC "-//W3C//DTD SVG 1.1//EN" "http://www.w3.org/Graphics/SVG/1.1/DTD/svg11.dtd">
<!-- Creator: CorelDRAW 2020 (64-Bit) -->
<svg xmlns="http://www.w3.org/2000/svg" xml:space="preserve" width="210mm" height="297mm" version="1.1" style="shape-rendering:geometricPrecision; text-rendering:geometricPrecision; image-rendering:optimizeQuality; fill-rule:evenodd; clip-rule:evenodd"
viewBox="0 0 21000 29700"
 xmlns:xlink="http://www.w3.org/1999/xlink"
 xmlns:xodm="http://www.corel.com/coreldraw/odm/2003">
 <defs>
  <style type="text/css">
   <![CDATA[
    .fil0 {fill:#1E718F}
    .fil1 {fill:#FBFBFB}
   ]]>
  </style>
 </defs>
 <g id="Warstwa_x0020_1">
  <metadata id="CorelCorpID_0Corel-Layer"/>
  <g id="_1411368472800">
   <path class="fil0" d="M5386.07 7610.48c-12.76,5.13 -194.23,191.08 -233.62,229.76 -14.96,14.69 -20.89,17.11 -20.92,46.98 -0.13,178.62 0.17,357.27 0.17,535.89 0,85.04 -4.07,180.3 0,264.05 2.3,47.47 37.51,49.84 83.26,49.73 35.97,-0.08 245.95,-6.39 262.19,5.76 61.06,45.7 86.39,132.69 153.22,65.23 11.46,-11.57 58.08,-61.36 66.91,-66.8 16.94,-10.42 221.46,-4.27 259.98,-4.19 103.71,0.23 83.27,-27.05 83.27,-183.68l0 -799.69c0,-149.29 12.21,-145.42 -121.53,-145.42 -60.12,0 -517.14,-3.95 -532.93,2.38z"/>
   <path class="fil1" d="M5179.98 7895.11l-0.36 793.89 238.95 -0.5c-9.11,-18.92 -33.15,-31.74 -19.4,-65.95 10.78,-26.8 29.78,-27.57 65.95,-29.63 13.58,-77.33 -34.87,-195.68 59.77,-195.68l122.44 0c94.61,0 46.25,118.35 59.77,195.68 34.75,1.98 53.37,2.52 64.77,26.99 16.27,34.94 -8.79,49.29 -18.15,68.49l239.17 0.6 -0.28 -1033.01 -573.9 0.05c0,279.86 39.78,239.07 -238.73,239.07z"/>
   <path class="fil1" d="M5444.93 8642.26l140.09 141.53 143.05 -140.8c-83.68,-9.04 -70.2,31.5 -70.2,-196.64l-143.5 -1.1c-0.06,229.62 14.21,188.69 -69.44,197.01z"/>
   <path class="fil0" d="M5279.31 8210.19c9.18,5.09 15.61,7.46 31.31,7.46l551.46 0c49.38,0 47.48,-47.37 -0.48,-47.37l-550.02 0c-32.15,0 -40.69,11.52 -32.27,39.91z"/>
   <path class="fil0" d="M5310.62 8002.52l550.98 0c48.06,0 49.74,-47.37 0,-47.37l-550.98 0c-49.74,0 -48.07,47.37 0,47.37z"/>
   <path class="fil0" d="M5417.76 8110.31l443.84 0c48.79,0 48.68,-47.81 0,-47.81l-443.84 0c-47.69,0 -47.83,47.81 0,47.81z"/>
   <path class="fil0" d="M5290.78 8280.22c-24.01,10 -24.11,44.62 19.59,45.55 40.92,0.88 275.8,1.34 285.91,-2.94 21.9,-9.28 21.34,-44.61 -21.37,-45.34 -43.37,-0.73 -271.89,-2.36 -284.13,2.73z"/>
   <path class="fil1" d="M5217.64 7846.76l153.31 -0.59 -0.11 -153.24c-5.32,2.56 -143.07,131.64 -153.2,153.83z"/>
   <path class="fil0" d="M5288.16 8066.89c-7.54,4.31 -19.98,12.29 -9.45,31.98 4.79,8.95 19.23,15.25 32.9,7.97 23.48,-12.51 7.26,-57.47 -23.45,-39.95z"/>
  </g>
 </g>
</svg>
