<svg xmlns="http://www.w3.org/2000/svg" xml:space="preserve" version="1.1" style="shape-rendering:geometricPrecision; text-rendering:geometricPrecision; image-rendering:optimizeQuality; fill-rule:evenodd; clip-rule:evenodd" xmlns:xlink="http://www.w3.org/1999/xlink" xmlns:xodm="http://www.corel.com/coreldraw/odm/2003" viewBox="-17466.32 19376.08 723.73 947.3">
 <defs>
  <style type="text/css">
   <![CDATA[
    .fil0 {fill:#1E718F}
    .fil1 {fill:white}
   ]]>
  </style>
 </defs>
 <g id="Warstwa_x0020_1">
  <metadata id="CorelCorpID_0Corel-Layer"/>
  <path class="fil0" d="M-17354.86 20211.74c3.98,23.51 -3.84,82.57 5.5,97.93 12.03,19.77 62.93,12.33 91,12.33l416.75 0c116.87,0 97.35,5.31 97.35,-112.34l0 -623.64c0,-27.29 8.19,-77.18 -11.64,-91.69 -17.58,-12.86 -73.13,-2.24 -99.22,-6.94 -5.95,-114.15 27.51,-111.24 -95.85,-111.24l-416.75 0c-116.91,0 -97.35,-5.35 -97.35,112.34l0 623.64c0,132.17 -3.12,88.93 110.21,99.61z"/>
  <polygon class="fil1" points="-17409.26,20155.35 -17397.27,20155.8 -16924.37,20155.72 -16910.97,20155.13 -16910.49,19433.14 -17409.28,19431.63 "/>
  <path class="fil1" d="M-17297.82 20211.74l-1.13 53.27 498.9 1.51 -0.01 -721.48 -55.07 -0.29c-4.52,87.89 -0.36,186.57 -0.36,274.77l0.06 345.83c0.15,25.41 -1.88,42.98 -27.37,45.62 -69.96,7.23 -335.35,-6.73 -415.02,0.77z"/>
  <path class="fil0" d="M-17331.54 19877.98c-31.48,8.52 -34.01,53.49 13.92,54.2 48.6,0.71 321.29,1.85 332.66,-1.72 25.24,-7.92 30.21,-53 -16.12,-54.04 -48.38,-1.08 -317.09,-2.06 -330.46,1.56z"/>
  <path class="fil0" d="M-17331.54 19656.31c-31.48,8.51 -34.01,53.49 13.92,54.2 48.6,0.71 321.29,1.84 332.66,-1.72 25.24,-7.92 30.21,-53 -16.12,-54.04 -48.38,-1.08 -317.09,-2.06 -330.46,1.56z"/>
  <path class="fil0" d="M-17317.47 19821.62l315.88 0c47.87,0 47.78,-55.54 0.37,-55.54l-319.21 0c-45.36,0 -46.62,55.54 2.96,55.54z"/>
  <path class="fil0" d="M-17317.47 19599.95l150.74 0c45.44,0 46.97,-55.54 0,-55.54l-154.43 0c-44.63,0 -45.89,55.54 3.69,55.54z"/>
  <path class="fil0" d="M-17095.8 20043.3l94.58 0c47.5,0 47.41,-55.55 0,-55.55l-97.9 0c-45,0 -46.26,55.55 3.32,55.55z"/>
 </g>
</svg>