<svg xmlns="http://www.w3.org/2000/svg" xml:space="preserve" version="1.1" style="shape-rendering:geometricPrecision; text-rendering:geometricPrecision; image-rendering:optimizeQuality; fill-rule:evenodd; clip-rule:evenodd" xmlns:xlink="http://www.w3.org/1999/xlink" xmlns:xodm="http://www.corel.com/coreldraw/odm/2003" viewBox="-8431.26 14778.19 1390.49 1349.59">
 <defs>
  <style type="text/css">
   <![CDATA[
    .str0 {stroke:#1E718F;stroke-width:7.62;stroke-miterlimit:22.9256}
    .fil0 {fill:#1E718F}
    .fil1 {fill:#FCFCFC}
   ]]>
  </style>
 </defs>
 <g id="Warstwa_x0020_1">
  <metadata id="CorelCorpID_0Corel-Layer"/>
  <g id="_1411351836720">
   <path class="fil0 str0" d="M-7619.1 14916.66c-24.95,-26.98 -31.03,-23.17 -75.19,-23.04l-492.53 0.01c-65.75,0 -146.89,-18.26 -150.41,50.16 -6.41,124.55 -0.01,268.28 -0.01,394.97l0 293.26c-0.01,34.01 -9.98,78.43 30.8,64.33 8.86,-23.18 4.22,-561.35 4.22,-673.4 0,-25.3 -7.07,-75.9 6.29,-90.63 8.95,-4.48 598.09,-8.44 642.01,-1.82 -3.02,11.78 -22.39,17.69 -42.19,30.46 -26.79,17.26 -18.24,16.94 -58.3,16.64 -73.73,-0.55 -72.47,-2.52 -110.25,40.38 -36.08,40.97 -23.53,30.96 -119.13,30.96 -72.76,0 -65.8,12.2 -110.37,-39.67 -33.89,-39.43 -50.47,-34.21 -119.22,-31.83 -54.77,1.89 -39.71,58.36 -39.71,109.42l0 751.95c0,46.63 -14.43,109.2 36.2,111.73 114.92,5.74 319.48,-0.09 451.16,-0.05 25.17,0 49.89,3.91 66.81,-7.19 16.64,-10.92 30.49,-24.33 49.98,-29.63 0.8,25.5 3.71,62.32 -2.74,83.74 -32.65,6.83 -630.86,4.59 -647.31,-1.26 -15.2,-46.71 8.72,-196.19 -6.91,-244.84 -29.68,-10.08 -31.71,5.88 -31.48,34.73 0.34,42.38 -3.56,203.09 4.74,221.35 16.95,37.28 72.37,27.24 119.5,27.24l447.41 0c36.2,0 111.38,8.99 135.47,-11.47 29.73,-25.23 13.52,-88.76 18.33,-131.82 23.18,-8.05 42.48,-17.94 67.98,-25.28 4.95,35.98 -11.68,103.57 18.65,116.14 29.72,12.33 58.7,-38.08 79.15,-51.09 18.89,7.03 58.82,53.79 74.81,69.79 31.17,31.19 45.21,52.84 86.72,10.71 65.78,-66.75 74.03,-65.06 15.17,-123.91 -12.29,-12.29 -26.67,-24.61 -34.53,-38.24 70.62,6.46 167.02,77.26 170,-14.18 4.64,-142.33 -0.07,-360.12 -0.07,-511.55l0.23 -192.03c-0.2,-26.67 -6.46,-35.27 -31.46,-27.12 -8.3,24.55 -3.79,542.05 -3.79,651.52 0,21.29 7.87,75.29 -4.36,88.27 -6.64,6.96 1.4,6.84 -31.84,-5.88 -45.55,-17.42 -101.6,-23.51 -116.6,-29.76 3.95,-10.07 3.91,-8.49 12.63,-17.19 5.95,-5.94 9.47,-8.94 15.32,-14.81 11.01,-11.05 20.79,-27.27 6.64,-44.15 -16,-19.08 -220.91,-10.74 -232.37,-4.82 -33.66,17.38 -17.71,57.77 -24.51,99.77 -20.92,11.16 -53.93,19.18 -78.07,30.55 -18.26,8.61 -60.98,34.64 -75.05,38.2l-0.05 -891.82c60.46,-45.72 150.16,-83.87 245.9,-96.52 83.93,-11.1 226.53,5.72 281.51,49.1 2.86,29.46 -4.8,68.12 5.29,92.56 38.95,13.44 30.55,-25.71 30.59,-56.74 0.06,-37.79 3.3,-55.11 -23.31,-70.82 -106.14,-62.63 -270.55,-65.51 -392.59,-29.09 -21.12,6.3 -52.3,21.34 -69.16,23.71z"/>
   <path class="fil1 str0" d="M-7908.6 15084.42l-135.35 0c-62.77,0 -64.24,-71.11 -112.79,-71.11l-60.9 0.67 0.02 900.41 484.88 -0.24 0.46 -15.18c1.6,-105.58 3.59,-823.59 -1.08,-885.49l-62.44 -0.67c-46.1,0 -45.98,71.61 -112.8,71.61z"/>
   <path class="fil0 str0" d="M-8001.13 15262.85c-104.87,16.57 -191.63,104.3 -175.87,228.8 12.67,100.14 109.09,190.99 230.18,174.03 101.27,-14.17 191.08,-109.62 172.8,-231.98 -14.71,-98.44 -109.78,-189.39 -227.11,-170.85z"/>
   <path class="fil1 str0" d="M-8009.48 15300.18c-81.71,18.92 -152.27,94.6 -129.71,200.69 16.53,77.7 99.63,151.07 201.09,127.44 77.17,-17.96 149.89,-97.26 127.39,-199.39 -17.49,-79.37 -98.35,-151.99 -198.77,-128.74z"/>
   <path class="fil1 str0" d="M-7506.9 15778.65l0.47 157.77c39.74,-18.13 42.64,-79.7 96.46,-24.76 15.69,16.01 73.01,77.07 87.89,85.49l56.69 -55.67c-29.34,-29.38 -56.32,-56.73 -85.22,-85.41 -56.72,-56.3 -3.21,-51.56 23.23,-98.04l-160.12 -0.49c-18.54,0 -19.4,2.15 -19.4,21.11z"/>
   <path class="fil0 str0" d="M-7631.75 15272.49c23.13,7.3 61.77,-15.25 88.18,-23.43 182.44,-56.49 278.47,8.37 310.06,-13.02 5.06,-26.97 -7.13,-26.42 -29.3,-31.66 -117.02,-27.71 -234.04,-15.94 -343.94,30.24 -20.09,8.44 -32.93,11.34 -25,37.87z"/>
   <path class="fil0 str0" d="M-7630.73 15402.93c36.46,10.89 115.22,-63.33 297.47,-45.03 27.8,2.79 77.58,19.64 98.26,11.64l3.12 -22.43c-60.07,-42.91 -238.1,-29.21 -329.23,0.5 -58.66,19.12 -81.94,24.53 -69.62,55.32z"/>
   <path class="fil0 str0" d="M-7633.05 15138.94c22.57,15.12 57.05,-9.59 85.01,-18.64 181.28,-58.61 277.76,2.76 312.51,-10.88l4.08 -22.32c-54.66,-42.56 -236.98,-29.64 -327.76,-0.34 -47.57,15.36 -79.5,21.96 -73.84,52.18z"/>
   <path class="fil0 str0" d="M-7992.95 15456.42l0.06 84.26c-42.15,13.14 -28.54,37.96 1.58,37.96 29.08,0 59.77,5.47 59.24,-17.81 -0.54,-24.15 -21.94,-8.36 -25.35,-26.56 0,-29.42 2.88,-87.13 -2.93,-110.54 -12.11,-5.48 -51.43,-12.97 -54.24,9.42 -2.2,17.52 11.42,18.23 21.64,23.27z"/>
   <path class="fil0 str0" d="M-7449.98 15453.94c-238.05,33.2 -197.22,96.69 -150.23,77.08 37.92,-15.82 68.92,-27.63 114.5,-36.38 14.2,-2.72 56.43,-5.87 63.45,-12 5.82,-5.08 20.16,-35.38 -27.72,-28.7z"/>
   <path class="fil0 str0" d="M-7991.99 15380.64c8.96,3.43 17.31,4.71 29.71,2.02 28.58,-40.23 -46.58,-49.32 -29.71,-2.02z"/>
   <path class="fil0 str0" d="M-7991.7 15001.23c35.91,19.44 44.1,-10.91 32.52,-24.88 -10.82,-13.06 -40.69,-10.53 -32.52,24.88z"/>
  </g>
 </g>
</svg>