<svg xmlns="http://www.w3.org/2000/svg" xml:space="preserve" style="shape-rendering:geometricPrecision;text-rendering:geometricPrecision;image-rendering:optimizeQuality;fill-rule:evenodd;clip-rule:evenodd" viewBox="17454.8 14886.97 1047.2 1290.38"><defs><style>.str1{stroke:#1e718f;stroke-width:42.33;stroke-linecap:round;stroke-miterlimit:22.9256}.fil3{fill:none}.fil0{fill:#1e718f}.fil1{fill:#fbfbfb}</style></defs><g id="Warstwa_x0020_1"><path class="fil0" d="M17711 14890.59c-12.76 5.13-194.23 191.08-233.62 229.76-14.96 14.69-20.89 17.11-20.92 46.98-.13 178.62.17 357.27.17 535.89 0 85.04-4.07 180.3 0 264.05 2.3 47.47 37.51 49.84 83.26 49.73 262.65-.59 478.1-.58 742.3 0 103.71.23 83.27-27.05 83.27-183.68v-799.69c0-149.29 12.21-145.42-121.53-145.42-60.12 0-517.14-3.95-532.93 2.38z"/><path class="fil1" d="m17504.91 15175.22-.36 793.89h813.27l-.28-1033.01-573.9.05c0 279.86 39.78 239.07-238.73 239.07z"/><path class="fil0" d="M17604.24 15490.3c9.18 5.09 15.61 7.46 31.31 7.46h551.46c49.38 0 47.48-47.37-.48-47.37h-550.02c-32.15 0-40.69 11.52-32.27 39.91zM17635.55 15282.63h550.98c48.06 0 49.74-47.37 0-47.37h-550.98c-49.74 0-48.07 47.37 0 47.37zM17742.69 15390.42h443.84c48.79 0 48.68-47.81 0-47.81h-443.84c-47.69 0-47.83 47.81 0 47.81zM17615.71 15560.33c-24.01 10-24.11 44.62 19.59 45.55 40.92.88 275.8 1.34 285.91-2.94 21.9-9.28 21.34-44.61-21.37-45.34-43.37-.73-271.89-2.36-284.13 2.73z"/><path class="fil1" d="m17542.57 15126.87 153.31-.59-.11-153.24c-5.32 2.56-143.07 131.64-153.2 153.83z"/><path class="fil0" d="M17613.09 15347c-7.54 4.31-19.98 12.29-9.45 31.98 4.79 8.95 19.23 15.25 32.9 7.97 23.48-12.51 7.26-57.47-23.45-39.95zM18056.69 15510.11c-9.86 3.99-26 8.49-36.99 13.14-11.67 4.94-23.87 12.42-36.46 16.82-15.11-8.91-30.18-41.1-53.53-27.51l-91.22 90.63c-17.42 25.29 17.24 36.8 26.31 55.46-4.67 12.84-10.92 22.56-16.07 34.69-4.88 11.48-8.01 27.69-15.18 38.3-66.3 4.42-56.35-19.4-56.43 137.22-.01 36.49 25.83 27.71 57.78 28.32 4.18 10.39 8.58 26.01 13.01 36.6 6.25 14.94 12.08 23.87 16.88 37-9.09 14.95-41.15 30.27-27.62 53.52l90.62 91.23c24.33 16.68 39.1-17.32 55.45-26.45 11.88 4.48 22.31 10.6 34.55 15.92 11.32 4.9 28.38 8.26 38.65 15.47 3.81 65.83-21.23 56.4 137.21 56.4 37.01 0 26.69-24.69 28.52-56.4l73.2-31.39c15.72 8.76 30.22 41.06 53.51 27.77l91.24-90.6c16.81-24.36-16.7-39.78-26.29-55.47 4.55-12.48 10.11-21.19 15.91-34.78 5.23-12.25 9.32-27.34 13.97-38.83 67.67-1.23 57.78 17.17 57.78-136.6 0-37.68-24.47-26.82-56.43-28.92-6.59-9.66-10.11-26.11-14.25-36.06-5.64-13.57-12-23.24-17-36.94 8.84-18.04 41.53-29.08 27.63-53.51l-90.61-91.23c-24.43-16.96-39.51 16.76-55.46 26.16-12.12-4.23-23.19-11.22-34.39-15.91-12.49-5.24-27.44-9.36-39.05-14.05-1.6-67.79 17.43-57.54-136.77-57.54-36.82 0-27.72 25.3-28.47 57.54z"/><path class="fil1" d="M17941.84 15559.15c-10.26 5.76-52.68 48.04-57.93 58.1 7.84 12.82 28.69 22.55 26.38 40.79-.87 6.94-18.94 36.71-23.49 47.39-24.02 56.43 1.44 66.78-69.41 66.98l-.61 84.39c71.38 0 45.8 9.6 70.26 67.08 4.4 10.33 21.27 37.54 22.74 44.53 4.48 21.22-17.8 28.89-26.03 43.78 5.67 10.14 48.11 52.7 58.09 57.94 13.03-7.91 22.62-28.74 41.02-26.53 6.48.78 37.37 18.67 47.4 23.24 56.84 25.88 66.83-3.33 66.83 69.74l84.42.12c0-71.67 8.83-44.45 66.96-69.78 12-5.22 37.66-21.16 44.59-22.74 20.62-4.72 30.07 17.58 43.71 25.93 9.79-5.03 52.55-47.92 58.11-57.92-7.74-14-28.73-22.45-26.53-41 .76-6.42 17.62-35.24 23.11-47.37 25.86-57.12-2.73-67.02 69.65-67.02l.25-84.42c-71.05 0-45.5-10.68-69.58-66.91-4.73-11.02-21.31-37.69-22.95-44.77-4.72-20.35 17.61-29.9 25.88-43.45-5.13-9.93-47.83-52.5-57.94-58.09-13.79 7.64-22.41 28.49-40.79 26.46-7.06-.79-35.51-18.34-47.39-23.49-56.26-24.38-67.08 1.96-67.08-69.27l-84.42-.68c0 71.07-11 46.32-67.06 69.96-10.31 4.35-37.99 21.54-44.74 22.99-20.62 4.43-28.9-17.95-43.45-25.98z"/><path class="fil0" d="M18104.73 15654.61c-94.03 22.38-145.98 110.18-125.92 196.42 17.51 75.24 95.1 147.66 196.81 124.17 74.97-17.31 147.8-95.14 124.16-196.78-17.53-75.39-95.26-147.56-195.05-123.81z"/><path class="fil1" d="M18119.26 15691.98c-162.28 26.69-121.97 272.66 40.88 245.52 62-10.34 114.18-70.22 101.95-143.6-10.38-62.26-69.85-113.92-142.83-101.92z"/><circle cx="18139.42" cy="15814.84" r="192.95" style="fill:#fff;stroke:#1e718f;stroke-width:42.33;stroke-miterlimit:22.9256"/><path class="fil3 str1" d="m18138.38 15845.64 1.1-137.41M18139.48 15922.25v-13.49"/></g></svg>