<svg xmlns="http://www.w3.org/2000/svg" xml:space="preserve" style="shape-rendering:geometricPrecision;text-rendering:geometricPrecision;image-rendering:optimizeQuality;fill-rule:evenodd;clip-rule:evenodd" viewBox="9507.82 11716.21 1156.29 1337.27"><defs><style>.str0{stroke:#1e718f;stroke-width:7.62;stroke-miterlimit:22.9256}.fil0{fill:#1e718f}.fil1{fill:#fbfbfb}</style></defs><g id="Warstwa_x0020_1"><path class="fil0 str0" d="M9820.53 12236.85c18.62 6.21 99.23 9.04 116.54 0 28.61-17.95-21.46-120.19 47.81-215.67 87.69-120.89 271.97-108.37 339.63 25.72 29.63 58.72 24.92 165.81 21.29 241.81-25.85 5.06-422.64 1.59-484.71 1.59-58.07-.01-96.81-.73-123.95 38.25-23.44 33.65-16.3 98-16.3 145.55 0 80.59-5.87 459.06 5.91 483.49 26.99 7.09 362.37 3.09 419.06 3.09 53.59 0 398.03 5.55 418.07-3.86 14.36-11.01 7.36-158.18 7.36-183.59l.05-382.09c-.52-62.7-32.68-98.14-93.92-100.84-12.05-146.79 22.77-218.07-56.69-336.19-45.32-67.37-129.56-135.78-246.56-145.48-132.02-10.96-219.57 52.28-277.03 114.03-27.06 29.09-55.46 79.81-69.11 129.37-9.79 35.56-20.29 152.58-7.45 184.82z"/><path class="fil1 str0" d="m9756.71 12924.39 778.6.62c4.09-162.98.24-330.86.26-494.16.01-114.76-11.11-104.87-141.08-104.88h-493.76c-28.35 0-95.48-4.72-116.12 6.87-32.74 18.39-28.16 53.14-28.16 98.01.02 163.11-3.91 331.02.26 493.54z"/><path class="fil0 str0" d="M10106.87 12597.52c-91.21 25.69-146.6 90.93-148.91 182.78-.66 25.99-2.65 89.6 3.63 108.92 22.38 9.85 349.79 8.31 369.02.37 10.25-33.43 8.61-146.99-18.66-196.2-27.39-49.44-62.79-77.49-126.91-96.07l34.01-21.17c34.07-24.54 54.46-70.13 47.71-115.61-8.14-54.91-57.33-103.77-120.96-103.63-62.53.13-110.9 47.51-119.9 101.54-9.06 54.33 18.24 103.74 62.55 127.04l16.17 10.08c.53.42 1.55 1.25 2.25 1.95z"/><path class="fil1 str0" d="m9852.82 12204.95 56.17.38c10.51-50.12-16.04-142.87 63.56-225.15 126.2-130.42 311.9-84.86 380.49 45.2 43.45 82.39 24.93 163.93 29.07 263.18l58.2 1.72c6.44-111.44 7.1-225.38-42.62-305.87-132.43-214.36-449.2-177.03-531.02 62.81-12.03 35.26-22.29 118.29-13.85 157.73zM9995.15 12858.76l303.2.05c5.39-58.92 2.59-121.41-25.62-162.02-93.91-135.15-317.79-63.44-277.58 161.97zM10120.9 12397.27c-110.88 36.41-55.39 196.63 50.82 163.68 107.06-33.22 57.88-199.37-50.82-163.68z"/><path class="fil0 str0" d="M10440.85 12441.66c0 58.05-3.38 189.31 2.89 239.23 20.67 8.31 32.8 4.4 32.8-22.99 0-38.4 6.5-218.24-6.34-241.13-24.92-5.22-29.35 1.05-29.35 24.89zM10440.85 12748v68.48c0 42.15 35.69 41.51 35.69 0 0-17.73 3.94-88.88-6.84-96.6-26.13-6.17-28.85 4.31-28.85 28.12zM9601.98 12232.41c20.58 9.78 76.56 4.88 100.99 1.57 3.2-10.02 3.21-17.87-.14-27-17.16-7.07-54.29-4.6-76.01-4.6-25.07 0-32.8 8.49-24.84 30.03zM9720.73 12174.9c14.36-23.57-4.09-33.24-17.97-47.08-9.21-9.18-30.2-39.13-48.25-29.85-25.1 12.91 7.74 39.76 14.06 46.05 14.21 14.12 25.21 35.3 52.16 30.88zM9703.67 12265.38c-17.87 7.73-30.76 25.52-44.58 39.17-22.66 22.37-12.54 48.39 11.8 37.4 4.65-2.1 36.41-35.11 42.38-40.95 23.39-22.89 10.53-44.33-9.6-35.62z"/></g></svg>