<svg version="1.2" xmlns="http://www.w3.org/2000/svg" viewBox="0 0 914 1227" width="914" height="1227">
	<title>ikonka_pobierz_szablon_pliku_cropped-svg</title>
	<style>
		.s0 { fill: #971212 } 
		.s1 { fill: #fbfbfb } 
	</style>
	<g id="Warstwa_x0020_1 copy">
		<g id="_1411368472800">
			<path id="Layer" fill-rule="evenodd" class="s0" d="m790 2.1c133.7 0 121.5-3.9 121.5 145.4v799.7c0 156.6 20.5 183.9-83.2 183.7-38.6-0.1-243.1-6.2-260 4.2-8.9 5.4-55.5 55.2-66.9 66.8-66.9 67.4-92.2-19.6-153.3-65.3-16.2-12.1-226.2-5.8-262.1-5.7-45.8 0.1-81-2.3-83.3-49.7-4.1-83.8 0-179.1 0-264.1 0-178.6-0.3-357.3-0.2-535.9 0.1-29.9 6-32.3 20.9-47 39.4-38.6 220.9-224.6 233.7-229.7 15.8-6.4 472.8-2.4 532.9-2.4z"/>
			<path id="Layer" fill-rule="evenodd" class="s1" d="m289.7 50h573.9l0.3 1033-239.2-0.6c9.4-19.2 34.4-33.5 18.2-68.5-11.4-24.5-30-25-64.8-27-13.5-77.3 34.8-195.7-59.8-195.7h-122.4c-94.6 0-46.2 118.4-59.8 195.7-36.2 2.1-55.2 2.9-65.9 29.6-13.8 34.3 10.3 47.1 19.4 66l-239 0.5 0.4-793.9c278.5 0 238.7 40.8 238.7-239.1z"/>
			<path id="Layer" fill-rule="evenodd" class="s1" d="m385.4 839.3l143.5 1.1c0 228.1-13.5 187.6 70.2 196.6l-143.1 140.8-140.1-141.5c83.7-8.4 69.4 32.6 69.5-197z"/>
			<path id="Layer" fill-rule="evenodd" class="s0" d="m182.6 564.3h550c48 0 49.9 47.3 0.5 47.3h-551.5c-15.7 0-22.1-2.3-31.3-7.4-8.4-28.4 0.1-39.9 32.3-39.9z"/>
			<path id="Layer" fill-rule="evenodd" class="s0" d="m181.6 349.2h551c49.7 0 48.1 47.3 0 47.3h-551c-48 0-49.7-47.3 0-47.3z"/>
			<path id="Layer" fill-rule="evenodd" class="s0" d="m288.8 456.5h443.8c48.7 0 48.8 47.8 0 47.8h-443.8c-47.9 0-47.7-47.8 0-47.8z"/>
			<path id="Layer" fill-rule="evenodd" class="s0" d="m445.9 671.5c42.7 0.7 43.3 36 21.4 45.3-10.1 4.3-245 3.8-285.9 3-43.7-1-43.6-35.6-19.6-45.6 12.2-5.1 240.7-3.4 284.1-2.7z"/>
			<path id="Layer" fill-rule="evenodd" class="s1" d="m241.8 86.9l0.2 153.3-153.4 0.6c10.2-22.2 147.9-151.3 153.2-153.9z"/>
			<path id="Layer" fill-rule="evenodd" class="s0" d="m182.6 500.8c-13.7 7.3-28.1 1-32.9-7.9-10.5-19.7 1.9-27.7 9.5-32 30.7-17.5 46.9 27.4 23.4 39.9z"/>
		</g>
	</g>
</svg>